<svg width="383" height="111" viewBox="0 0 383 111" fill="none" xmlns="http://www.w3.org/2000/svg">
<path d="M37.5832 83L27.7932 26.46L18.8832 83H12.2832L24.3832 5.99999C19.7632 7.02666 16.2065 9.26333 13.7132 12.71C11.2199 16.0833 9.9732 20.85 9.9732 27.01C9.9732 29.5033 10.1199 31.5567 10.4132 33.17C10.7799 34.71 11.1832 35.9567 11.6232 36.91C12.0632 37.8633 12.5032 38.56 12.9432 39C13.4565 39.3667 13.8232 39.6233 14.0432 39.77C10.0832 39.77 6.8932 38.78 4.4732 36.8C2.0532 34.7467 0.843203 31.5567 0.843203 27.23C0.843203 23.6367 1.7232 20.2267 3.4832 17C5.2432 13.7 7.47987 10.84 10.1932 8.42C12.9065 6 15.8765 4.09333 19.1032 2.7C22.4032 1.23333 25.5932 0.499993 28.6732 0.499993C29.8465 0.499993 30.9832 0.609994 32.0832 0.829996C33.2565 1.05 34.3565 1.45333 35.3832 2.03999L46.3832 65.95L59.2532 2.03999H71.7932L77.9532 83H65.4132L61.0132 25.36L49.3532 83H37.5832ZM123.488 28V91.69C123.488 95.1367 123.121 98.0333 122.388 100.38C121.655 102.8 120.628 104.743 119.308 106.21C118.061 107.75 116.595 108.85 114.908 109.51C113.295 110.17 111.571 110.5 109.738 110.5C106.071 110.5 103.211 109.437 101.158 107.31C99.1047 105.257 98.078 102.727 98.078 99.72C98.078 97.8133 98.4814 96.09 99.288 94.55C100.168 93.01 101.268 91.58 102.588 90.26C103.981 89.0133 105.521 87.8767 107.208 86.85C108.968 85.8967 110.728 85.0533 112.488 84.32V77.39C111.021 79.5167 109.335 81.0933 107.428 82.12C105.595 83.1467 103.725 83.66 101.818 83.66C99.6914 83.66 97.6747 83.3667 95.768 82.78C93.8614 82.1933 92.2114 81.24 90.818 79.92C89.4247 78.5267 88.3247 76.7667 87.518 74.64C86.7114 72.44 86.308 69.7633 86.308 66.61V28H97.308V65.4C97.308 68.9933 97.9314 71.56 99.178 73.1C100.425 74.5667 102.001 75.3 103.908 75.3C104.935 75.3 105.961 75.0433 106.988 74.53C108.015 73.9433 108.931 73.1367 109.738 72.11C110.545 71.0833 111.205 69.8367 111.718 68.37C112.231 66.9033 112.488 65.2167 112.488 63.31V28H123.488ZM107.648 104.78C109.628 104.78 110.911 104.01 111.498 102.47C112.158 101.003 112.488 98.9867 112.488 96.42V88.72C108.821 90.4067 106.218 92.0567 104.678 93.67C103.138 95.3567 102.368 97.2267 102.368 99.28C102.368 100.967 102.808 102.287 103.688 103.24C104.641 104.267 105.961 104.78 107.648 104.78Z" fill="#80C0FF"/>
<path d="M165.589 10.84V36.47H168.449C170.649 36.47 172.592 35.9933 174.279 35.04C176.039 34.0133 177.505 32.73 178.679 31.19C179.925 29.5767 180.842 27.78 181.429 25.8C182.089 23.7467 182.419 21.73 182.419 19.75C182.419 17.99 182.125 16.23 181.539 14.47C181.025 12.6367 180.072 10.9867 178.679 9.52C177.285 7.98 175.342 6.77 172.849 5.89C170.355 4.93666 167.202 4.45999 163.389 4.45999C159.942 4.45999 156.752 4.97333 153.819 5.99999C150.959 7.02666 148.465 8.52999 146.339 10.51C144.212 12.4167 142.525 14.7633 141.279 17.55C140.105 20.3367 139.519 23.49 139.519 27.01C139.519 29.5767 139.665 31.6667 139.959 33.28C140.252 34.82 140.582 36.03 140.949 36.91C141.389 37.79 141.792 38.45 142.159 38.89C142.599 39.2567 142.929 39.55 143.149 39.77C141.609 39.77 140.069 39.55 138.529 39.11C136.989 38.5967 135.595 37.8267 134.349 36.8C133.102 35.7733 132.075 34.4167 131.269 32.73C130.535 30.97 130.169 28.88 130.169 26.46C130.169 23.0133 131.049 19.75 132.809 16.67C134.569 13.5167 136.989 10.7667 140.069 8.42C143.149 6 146.742 4.09333 150.849 2.7C154.955 1.23333 159.319 0.499993 163.939 0.499993C168.339 0.499993 172.262 0.939994 175.709 1.82C179.229 2.7 182.199 3.94666 184.619 5.55999C187.039 7.17333 188.872 9.11666 190.119 11.39C191.439 13.59 192.099 16.01 192.099 18.65C192.099 20.19 191.879 21.7667 191.439 23.38C190.999 24.9933 190.339 26.6067 189.459 28.22C188.652 29.8333 187.625 31.3367 186.379 32.73C185.132 34.1233 183.665 35.37 181.979 36.47C184.692 36.91 186.855 37.68 188.469 38.78C190.156 39.88 191.439 41.2367 192.319 42.85C193.199 44.39 193.749 46.1867 193.969 48.24C194.262 50.22 194.409 52.31 194.409 54.51C194.409 55.83 194.372 57.26 194.299 58.8C194.225 60.34 194.152 61.88 194.079 63.42C194.079 64.8867 194.042 66.3167 193.969 67.71C193.895 69.1033 193.859 70.35 193.859 71.45C193.859 74.75 194.445 77.3533 195.619 79.26C196.865 81.1667 198.369 82.4133 200.129 83C197.929 83.66 196.132 84.1367 194.739 84.43C193.345 84.7233 191.989 84.87 190.669 84.87C187.369 84.87 184.912 83.8067 183.299 81.68C181.759 79.5533 180.989 76.84 180.989 73.54C180.989 72.1467 181.025 70.57 181.099 68.81C181.245 67.05 181.392 65.29 181.539 63.53C181.759 61.6967 181.905 59.9367 181.979 58.25C182.125 56.49 182.199 54.9133 182.199 53.52C182.199 51.0267 181.905 48.9367 181.319 47.25C180.805 45.49 180.072 44.1333 179.119 43.18C178.239 42.1533 177.139 41.42 175.819 40.98C174.572 40.54 173.215 40.32 171.749 40.32C170.942 40.32 169.915 40.3933 168.669 40.54C167.495 40.6867 166.469 40.87 165.589 41.09V83H153.709V12.49L165.589 10.84ZM238.795 41.75C238.795 46.8833 236.668 51.1733 232.415 54.62C228.235 58.0667 222.405 60.1933 214.925 61C215.218 63.9333 215.731 66.3167 216.465 68.15C217.271 69.9833 218.225 71.45 219.325 72.55C220.425 73.5767 221.671 74.31 223.065 74.75C224.531 75.1167 226.035 75.3 227.575 75.3C231.095 75.3 234.395 74.3833 237.475 72.55C240.555 70.7167 243.048 67.6367 244.955 63.31H248.475C247.521 66.0233 246.201 68.6267 244.515 71.12C242.828 73.54 240.848 75.7033 238.575 77.61C236.301 79.4433 233.845 80.91 231.205 82.01C228.565 83.11 225.851 83.66 223.065 83.66C220.498 83.66 218.005 83.22 215.585 82.34C213.238 81.46 211.148 80.03 209.315 78.05C207.481 75.9967 205.978 73.3567 204.805 70.13C203.705 66.9033 203.155 62.9433 203.155 58.25C203.155 55.17 203.485 51.8333 204.145 48.24C204.878 44.6467 206.051 41.31 207.665 38.23C209.351 35.15 211.515 32.5833 214.155 30.53C216.868 28.4767 220.205 27.45 224.165 27.45C225.998 27.45 227.758 27.67 229.445 28.11C231.205 28.4767 232.781 29.21 234.175 30.31C235.568 31.3367 236.668 32.7667 237.475 34.6C238.355 36.4333 238.795 38.8167 238.795 41.75ZM214.815 56.71C220.021 55.9033 224.128 54.07 227.135 51.21C230.215 48.35 231.755 44.83 231.755 40.65C231.755 37.8633 231.278 35.8833 230.325 34.71C229.371 33.4633 228.015 32.84 226.255 32.84C224.348 32.84 222.661 33.5733 221.195 35.04C219.801 36.5067 218.628 38.4133 217.675 40.76C216.721 43.0333 215.988 45.6 215.475 48.46C215.035 51.2467 214.815 53.9967 214.815 56.71ZM285.453 28V65.4C285.453 66.1333 285.489 67.05 285.563 68.15C285.636 69.25 285.819 70.35 286.113 71.45C286.479 72.4767 286.993 73.3933 287.653 74.2C288.313 74.9333 289.229 75.3 290.403 75.3C293.996 75.3 296.636 71.3033 298.323 63.31H302.393C301.586 67.93 300.559 71.5967 299.313 74.31C298.066 76.95 296.746 78.9667 295.353 80.36C293.959 81.7533 292.529 82.6333 291.063 83C289.596 83.44 288.276 83.66 287.103 83.66C285.416 83.66 283.949 83.3667 282.703 82.78C281.529 82.1933 280.503 81.4233 279.623 80.47C278.816 79.5167 278.156 78.4167 277.643 77.17C277.129 75.9233 276.726 74.6033 276.433 73.21C275.333 76.07 273.536 78.5267 271.043 80.58C268.623 82.6333 265.653 83.66 262.133 83.66C259.933 83.66 257.696 83.22 255.423 82.34C253.223 81.46 251.206 80.03 249.373 78.05C247.613 75.9967 246.146 73.3933 244.973 70.24C243.873 67.0133 243.323 63.09 243.323 58.47C243.323 55.0967 243.689 51.5767 244.423 47.91C245.229 44.2433 246.476 40.9067 248.163 37.9C249.849 34.8933 252.013 32.4 254.653 30.42C257.293 28.44 260.483 27.45 264.223 27.45C265.103 27.45 266.019 27.56 266.973 27.78C267.999 27.9267 268.953 28.22 269.833 28.66C270.786 29.1 271.666 29.7233 272.473 30.53C273.279 31.2633 273.939 32.18 274.453 33.28V28H285.453ZM264.883 75.3C265.983 75.3 267.083 75.0067 268.183 74.42C269.356 73.76 270.383 72.9167 271.263 71.89C272.216 70.79 272.986 69.5067 273.573 68.04C274.159 66.5733 274.453 64.9967 274.453 63.31V38.23C273.939 37.0567 273.133 35.9933 272.033 35.04C271.006 34.0133 269.649 33.5 267.963 33.5C265.616 33.5 263.599 34.3067 261.913 35.92C260.226 37.46 258.869 39.44 257.843 41.86C256.816 44.2067 256.046 46.81 255.533 49.67C255.093 52.4567 254.873 55.1333 254.873 57.7C254.873 64.0067 255.716 68.5167 257.403 71.23C259.163 73.9433 261.656 75.3 264.883 75.3ZM338.841 5.99999V65.4C338.841 66.1333 338.878 67.05 338.951 68.15C339.025 69.25 339.208 70.35 339.501 71.45C339.868 72.4767 340.381 73.3933 341.041 74.2C341.701 74.9333 342.618 75.3 343.791 75.3C347.385 75.3 350.025 71.3033 351.711 63.31H355.781C354.975 67.93 353.948 71.5967 352.701 74.31C351.455 76.95 350.135 78.9667 348.741 80.36C347.348 81.7533 345.918 82.6333 344.451 83C342.985 83.44 341.665 83.66 340.491 83.66C338.805 83.66 337.338 83.3667 336.091 82.78C334.918 82.1933 333.891 81.4233 333.011 80.47C332.205 79.5167 331.545 78.4167 331.031 77.17C330.518 75.9233 330.115 74.6033 329.821 73.21C328.721 76.07 326.925 78.5267 324.431 80.58C322.011 82.6333 319.041 83.66 315.521 83.66C313.321 83.66 311.085 83.22 308.811 82.34C306.611 81.46 304.595 80.03 302.761 78.05C301.001 75.9967 299.535 73.3933 298.361 70.24C297.261 67.0133 296.711 63.09 296.711 58.47C296.711 55.0967 297.078 51.5767 297.811 47.91C298.618 44.2433 299.865 40.9067 301.551 37.9C303.238 34.8933 305.401 32.4 308.041 30.42C310.681 28.44 313.871 27.45 317.611 27.45C318.491 27.45 319.408 27.56 320.361 27.78C321.388 27.9267 322.341 28.22 323.221 28.66C324.175 29.1 325.055 29.7233 325.861 30.53C326.668 31.2633 327.328 32.18 327.841 33.28V7.53999L338.841 5.99999ZM318.271 75.3C319.371 75.3 320.471 75.0067 321.571 74.42C322.745 73.76 323.771 72.9167 324.651 71.89C325.605 70.79 326.375 69.5067 326.961 68.04C327.548 66.5733 327.841 64.9967 327.841 63.31V38.23C327.328 37.0567 326.521 35.9933 325.421 35.04C324.395 34.0133 323.038 33.5 321.351 33.5C319.005 33.5 316.988 34.3067 315.301 35.92C313.615 37.46 312.258 39.44 311.231 41.86C310.205 44.2067 309.435 46.81 308.921 49.67C308.481 52.4567 308.261 55.1333 308.261 57.7C308.261 64.0067 309.105 68.5167 310.791 71.23C312.551 73.9433 315.045 75.3 318.271 75.3ZM373.53 24.59C375.29 31.63 376.757 37.3867 377.93 41.86C379.103 46.26 380.02 50 380.68 53.08C381.413 56.0867 381.927 58.7633 382.22 61.11C382.513 63.4567 382.66 66.06 382.66 68.92C382.66 71.6333 382.073 73.9433 380.9 75.85C379.727 77.6833 378.26 79.1867 376.5 80.36C374.74 81.5333 372.87 82.3767 370.89 82.89C368.91 83.4033 367.15 83.66 365.61 83.66C362.383 83.66 359.707 83.1467 357.58 82.12C355.527 81.0933 353.877 79.81 352.63 78.27C351.383 76.6567 350.503 74.8967 349.99 72.99C349.477 71.01 349.22 69.14 349.22 67.38C349.22 65.4733 349.587 63.8233 350.32 62.43C351.127 60.9633 352.08 59.9367 353.18 59.35C355.087 53.85 356.957 48.4233 358.79 43.07C360.623 37.6433 361.833 32.2167 362.42 26.79L373.53 24.59ZM371 67.71C371 65.4367 370.853 63.42 370.56 61.66C370.34 59.9 369.973 57.9567 369.46 55.83C368.947 53.7033 368.287 51.1367 367.48 48.13C366.747 45.05 365.867 41.1267 364.84 36.36C364.4 40.4667 363.483 44.39 362.09 48.13C360.77 51.87 359.56 55.72 358.46 59.68C359.12 60.12 359.67 60.7433 360.11 61.55C360.623 62.2833 360.88 63.2733 360.88 64.52C360.88 65.9133 360.513 66.9767 359.78 67.71C359.047 68.4433 358.24 68.81 357.36 68.81C356.187 68.81 355.197 68.2967 354.39 67.27C354.977 69.8367 356.003 71.8533 357.47 73.32C358.937 74.7133 360.88 75.41 363.3 75.41C365.647 75.41 367.517 74.8233 368.91 73.65C370.303 72.4033 371 70.4233 371 67.71Z" fill="white"/>
</svg>
